<?xml version="1.0" encoding="UTF-8"?>
<svg width="752pt" height="752pt" version="1.1" viewBox="0 0 752 752" xmlns="http://www.w3.org/2000/svg">
 <g>
  <path d="m500.18 274.86c-42.094-0.125-84.184-0.17188-126.28-0.16016-15.008 0.003906-31.113 3.2773-38.461-15.996-6.5859 5.0352-14.113 6.5859-11.824 16.004-11.906 0-23.125-0.41016-34.297 0.14844-7.2852 0.36328-17.211-3.8203-21.164 4.0195-4.1719 8.2734 5.1211 14.133 9.3438 20.477 19.484 29.285 45.203 53.27 68.223 79.551 11.797 13.473 23.668 28.27 24.617 46.289 1.7383 33.086-1.3086 66.445 0.82422 99.48 1.4414 22.336-9.2578 33.52-26.211 43.223-6.8398 3.918-20.586 3.75-18.461 14.035 2.3867 11.555 15.301 5.6484 23.34 5.8359 31.324 0.70703 62.672 0.26953 94.012 0.14844 5.1719-0.019531 11.82 1.3906 13.133-5.9023 1.1367-6.3281-5.0312-7.5859-9.2461-9.8516-6.3047-3.3828-12.914-6.2891-18.883-10.184-11.379-7.4336-17.613-16.664-17.035-31.957 1.3203-34.922 0.22656-69.934 0.21484-104.91 0-3.0586-0.26562-6.7383 1.2344-9.0742 8.6953-13.5 15.059-28.32 26.422-40.34 24.918-26.375 50.465-52.336 70.395-82.941 2.6602-4.0898 8.6523-8.0273 4.9297-14.094-3.3984-5.543-9.6094-3.7891-14.824-3.8047zm-44.637 58.344c-11.547 12.527-22.68 25.441-34.48 37.723-11.836 12.312-15.402 29.168-24.539 43-4.3555 6.5938 1.8711 14.52 1.7344 22.207-0.57422 32.277 0.18359 64.578-0.46094 96.852-0.25391 12.742 0.90625 23.863 12.273 31.836 2.2148 1.5547 5.3516 3.5312 4.7109 8.1914h-46.363c-2.0312-3.1133 0.69141-5.1484 2.6289-6.3984 13.688-8.832 14.246-22.098 13.969-36.512-0.59375-30.93-2.5117-62.105 0.46875-92.754 2.8125-28.895-10.668-49.414-26.734-69.402-20.977-26.105-46.723-48.211-65.387-76.57 26.879-8.4023 47.16-3.2305 57.035 14.598-7.3594 3.9219-17.133-0.75781-23.793 6.375 0.95312 7.25 6.0039 11.863 10.406 16.754 13.719 15.262 29.289 28.66 39.941 46.891 8.5625 14.656 14.789 12.801 28.004 2.4844 19.574-15.281 30.848-37.172 47.492-54.648 3.3281-3.4961 7.3164-7.6953 4.6875-13.031-2.8047-5.6875-8.7148-3.2812-13.336-3.2852-18.828-0.015625-37.688-0.30859-56.473 0.6875-13.812 0.73047-21.16-6.4727-28.254-18.797 44.246-0.90625 86.82-2.0977 131.36 0.10547-10.625 16.797-22.598 30.359-34.895 43.695z"/>
  <path d="m285.32 235.16c-1.0312 10.539 4.4336 18.816 13.812 24.301 9.8633 5.7617 15.953-1.5859 22.688-6.3477 8.7656-6.1953 14.246-13.898 9.3125-25.195-4.6445-10.633-13.09-17.074-24.418-14.742-11.969 2.4609-17.035-3.4531-21.949-12.172 6.5742-7.4023 12.961-14.293 18.984-21.496 3.3984-4.0625 11.234-7.2852 5.9062-14.156-4.5352-5.8516-9.543 0.42578-14.449 1.2695-15.746 2.7148-31.328 12.953-47.59 2.1914 0.80078 9.4531 0.80078 9.4531-2.4453 12.184-13.672 11.504-13.656 11.488-1.3867 24.27 2.1719 2.2656 4.207 4.6641 6.2422 7.0508 11.57 13.574 11.566 13.578 25.016 1.4648 7 6.1094 11.207 11.891 10.277 21.379z"/>
  <path d="m494.35 240.52c13.789 0.375 22.715-7.5312 22.91-20.285 0.19531-12.352-9.2461-20.512-24.121-20.859-10.855-0.25391-19.438 9.9688-19.715 23.496-0.20703 10.16 8.2656 17.309 20.926 17.648z"/>
  <path d="m400.72 188c6.9961 0 12.938-2.2656 13.207-10.102 0.26953-7.8633-4.9062-12.484-12.488-13.039-7.6094-0.55469-11.305 4.1875-11.938 11.492-0.70703 8.1523 3.8164 11.285 11.219 11.648z"/>
  <path d="m438.07 244.58c6.8008-0.51562 10.684-3.9609 10.328-10.266-0.44922-7.9688-5.918-12.102-13.402-11.977-6.8984 0.11328-10.457 5.1523-9.8633 11.766 0.68359 7.6797 6.8594 9.582 12.938 10.477z"/>
 </g>
</svg>
