<?xml version="1.0" encoding="UTF-8"?>
<svg width="752pt" height="752pt" version="1.1" viewBox="0 0 752 752" xmlns="http://www.w3.org/2000/svg">
 <path d="m410.05 196.81v-33.473h-68.117v33.473h68.117zm-81.742 391.84c-0.80078-12.699 0.25-27.246 4.6641-39.164 8.8359-21.797 25.773-22.078 33.953-0.027344 4.4375 11.93 5.4922 26.48 4.6875 39.195l8.7656 0.011718c-0.79297-12.719 0.21875-27.156 4.6719-39.176 8.7695-21.652 25.664-22.355 33.945-0.027343 4.4414 11.93 5.5 26.48 4.6914 39.195l5.6172 0.011719c28.98-65.473-17.148-97.969 7.3711-172.88-40.066 7.0156-81.289 7.0156-121.36 0 24.527 74.91-21.609 107.41 7.3789 172.88l5.6172-0.011719zm30.34 0.011718c0.77734-11.094 0.027344-24.238-3.8555-34.719-3.6133-9.8125-6.0586-10.836-9.6641 0-3.8828 10.48-4.6328 23.629-3.8555 34.719zm52.074 0c0.77734-11.094 0.027344-24.238-3.8555-34.719-3.6094-9.8125-6.0391-10.891-9.6641 0-3.8828 10.48-4.6367 23.629-3.8594 34.719zm-111.84-181.88-0.035156-110.61c0-1.9336 0.85547-3.6797 2.2031-4.8672 21.652-22.09 35.285-50.789 38.602-81.543h-4.1992c-3.5781 0-6.4844-2.9023-6.4844-6.4766v-46.434c0-3.5742 2.9023-6.4766 6.4844-6.4766h81.074c3.5742 0 6.4766 2.9023 6.4766 6.4766v46.434c0 3.5742-2.9023 6.4766-6.4766 6.4766h-4.1836c3.332 30.82 16.988 59.566 38.719 81.672 1.3242 1.2578 2.1484 3.0078 2.0586 5.0469l0.023438 110.8c0 1.0781-0.26953 2.1016-0.73828 3-32.453 80.508 24.941 107.71-13.109 187.64-1.1094 2.3281-3.4219 3.6875-5.8398 3.6875-38.309 0-76.609-0.003907-114.91 0.003906-2.6797 0-4.9883-1.6328-5.9688-3.9609-37.824-79.793 19.5-107.08-13.031-187.51-0.51953-1.0859-0.74219-2.1719-0.65625-3.3711zm12.926-4.793c42.285 8.1328 86.086 8.1328 128.37 0v-97.949c-42.336 7.8516-86.039 7.8516-128.37 0zm6.0742-110c38.359 6.668 77.863 6.668 116.22 0-19.609-23.23-31.766-51.965-34.77-82.227h-46.684c-3.0078 30.262-15.164 58.996-34.77 82.227z"/>
</svg>
