<?xml version="1.0" encoding="UTF-8"?>
<svg width="752pt" height="752pt" version="1.1" viewBox="0 0 752 752" xmlns="http://www.w3.org/2000/svg">
 <g>
  <path d="m374.11 486.14c-96.754 0-180.01-42.094-215.95-102.02v25.676c0 67.316 96.875 122.09 215.95 122.09 110.32 0 219.18-50.863 219.74-102.68v-34.039c-39.355 54.445-133.6 90.977-219.74 90.977z"/>
  <path d="m590.54 321.02c-5.9688-18.004-13.648-28.832-23.508-33.113-16.707-7.2539-40.938 3.9492-66.594 15.781-42.66 19.672-95.75 44.137-134.23-14.168-36.891-55.902-85.566-79.676-133.56-65.297-42.477 12.754-74.5 53.074-74.5 93.793 0 82.25 96.875 149.18 215.95 149.18 112.36 0 219.16-61.074 219.74-125.68v-0.007813-0.007812c0.085938-6.7773-1.0234-13.66-3.3047-20.48zm-329.89 72.883c-1.375 0.69141-2.8242 1.0117-4.2617 1.0117-3.4648 0-6.8008-1.9023-8.4688-5.2109l-44.516-88.211c-2.3594-4.668-0.48438-10.371 4.1875-12.719 4.6797-2.3789 10.363-0.49219 12.719 4.1875l44.516 88.219c2.3672 4.6719 0.48047 10.363-4.1758 12.723zm90.375 24.43c-1.3438 0.66406-2.7734 0.98438-4.1758 0.98438-3.4961 0-6.8594-1.9336-8.5039-5.2852l-74.676-151.38c-2.3125-4.6875-0.38672-10.371 4.3086-12.684 4.6875-2.3008 10.371-0.38672 12.684 4.3086l74.664 151.38c2.3203 4.6797 0.39062 10.363-4.3008 12.676zm80.234 14.547c-1.3086 0.59766-2.6602 0.89062-4.0078 0.89062-3.5703 0-6.9805-2.0156-8.5898-5.457l-35.898-76.816c-2.207-4.7344-0.17188-10.383 4.5664-12.586 4.7734-2.2266 10.391-0.16016 12.598 4.5664l35.898 76.805c2.2148 4.7461 0.17188 10.383-4.5664 12.598zm65.715-21.02c-1.4023 0.73828-2.918 1.0898-4.3945 1.0898-3.3984 0-6.6953-1.8359-8.3906-5.0664l-29.43-55.996c-2.4453-4.6328-0.65234-10.363 3.9766-12.797 4.6406-2.4453 10.352-0.64453 12.785 3.9766l29.43 56.004c2.4453 4.6367 0.66406 10.355-3.9766 12.789zm50.125-47.707c-1.5547 0.96484-3.2773 1.4219-4.9727 1.4219-3.1719 0-6.2695-1.5898-8.0703-4.4883l-18.68-30.156c-2.7461-4.4414-1.3828-10.285 3.0703-13.031 4.4609-2.7578 10.285-1.3828 13.043 3.0703l18.68 30.156c2.7539 4.4375 1.3789 10.27-3.0703 13.027z"/>
 </g>
</svg>
