<?xml version="1.0" encoding="UTF-8"?>
<svg width="752pt" height="752pt" version="1.1" viewBox="0 0 752 752" xmlns="http://www.w3.org/2000/svg">
 <g>
  <path d="m442 524.59c-3.5781 0-6.9258-2.2461-8.1406-5.8242-1.543-4.5 0.85547-9.4062 5.3516-10.949 8.4688-2.9023 16.625-6.4961 24.258-10.684 7.5312-4.1172 14.605-8.8438 21.039-14.047 12.949-10.473 23.105-22.598 30.18-36.055 7.0078-13.328 10.801-23.453 10.801-38.781 0-4.7617 3.8555-8.6172 8.6133-8.6172 4.7617 0 8.6172 3.8555 8.6172 8.6172 0 18.723-4.8906 31.789-12.785 46.805-8.1719 15.543-19.809 29.477-34.594 41.422-7.2383 5.8438-15.184 11.16-23.602 15.773-8.4844 4.6445-17.543 8.6328-26.93 11.863-0.92188 0.32812-1.8711 0.47656-2.8086 0.47656z"/>
  <path d="m452.26 247.37c0.83594 1.3359 1.5898 2.7266 2.2539 4.1562l8.1016-15.367c8.1719-15.508 19.762-25.402 34.434-29.391 8.625-2.3477 17.531-2.4062 26.133-1.0977-0.92188-7.7734-2.6094-21.328-4.3398-25.293-1.9023-4.3672 0.097656-9.4375 4.4492-11.34 4.3633-1.9062 9.4336 0.097657 11.34 4.4453 2.0547 4.7266 3.4648 12.977 4.7539 22.891 0.63281-1.4648 1.2422-2.9414 1.9023-4.5469l0.039063-0.09375c1.7227-4.1992 3.8711-9.418 7.6641-17.199 2.082-4.2812 7.2539-6.0547 11.52-3.9688 4.2852 2.082 6.0547 7.2344 3.9727 11.52-3.4883 7.168-5.4336 11.859-7.1211 15.977 4.4062-3.1484 8.5508-6.2891 10.32-8.3633 3.1016-3.6094 8.5352-4.0352 12.145-0.93359s4.0391 8.5312 0.9375 12.145c-4 4.6641-11.828 10.117-19.438 15.418l-0.22656 0.15625c-0.76953 0.53516-1.5547 1.082-2.3438 1.6328 3.4297 1.8125 6.5117 3.6094 9.1562 5.2422 7.6953 4.7617 12.586 12.344 14.164 21.961 1.8008 10.988-0.96094 24.102-5.582 36.496-0.15234 0.58203-0.36719 1.1445-0.64062 1.6836-5.5 14.176-13.301 27.238-19.289 34.879 5.6992 5.125 9.6719 11.785 11.43 19.305 1.957 8.3984 0.93359 17-2.875 24.641 7.918 3.4531 13.461 11.324 13.461 20.457 0 82.133-36.105 139.43-104.8 167.21 1.6719 2.707 2.6367 5.8906 2.6367 9.3008v9.4531c0 9.7812-7.957 17.738-17.738 17.738h-158.22c-9.7812 0-17.742-7.957-17.742-17.738v-9.4531c0-3.4648 0.99609-6.6953 2.7188-9.4297-68.734-28.191-104.9-85.543-104.9-167.08 0-8.3516 4.6328-15.645 11.477-19.473-8.0547-6.0664-13.402-15.273-9.6719-32.699 0.24609-1.1641 0.66016-2.2969 1.1992-3.3633-8.7148-5.3984-14.801-14.262-17.461-25.883-2.3789-10.469 3.2969-21.727 8.8945-28.195 3.0352-3.5117 6.3359-6.0859 9.7305-7.6641-0.03125-1.707-0.10547-3.582-0.18359-5.5078l-0.011719-0.26953c-0.70703-17.082-1.8867-45.672 25.438-54.93 10.535-3.5586 32.133-1.6211 41.98 9.5391 0.26172 0.29687 2.2031 2.5117 4.8398 5.9609 0.83984-1.2773 1.7812-2.5117 2.8242-3.6992 7.5156-8.5312 19.234-13.094 30.559-11.863 7.4414 0.79688 14.234 3.7188 19.781 8.0547 1.2305-4.1914 2.7578-7.9336 4.4922-10.926 6.2031-10.703 15.754-21.434 35.383-14.262 4.3672-6.5 11.355-12.492 19.645-16.562 14.246-6.9883 29.852-7.3516 43.965-1.0156 11.672 5.2344 23.289 16.82 22.93 30.887-0.082031 3.5625-0.77344 17.855-5.7617 30.328 9.2578 2.7227 16.723 8.2227 21.68 16.133zm112.81 0.72266c0.67969 4.1367 0.35156 8.9531-0.67578 14.059-6.8711-6.457-15.438-11.102-33.363-17.016-4.5117-1.4922-9.3867 0.96875-10.879 5.4844-1.4922 4.5117 0.96875 9.3867 5.4805 10.879 20.723 6.8516 25.371 10.48 32.637 19.504-4.8945 11.422-11.34 22.02-16.109 27.777-0.29687 0.35938-0.5625 0.73438-0.78906 1.125-14.344-4.2227-30.238-0.039062-40.367 10.895-9.7266-13.836-25.094-23.578-43.133-25.523-2.2617-0.24219-4.5195-0.35938-6.7617-0.35547l2.0859-3.957c0.15234-0.24609 0.29297-0.50781 0.42578-0.77734 0.042969-0.09375 0.089844-0.19141 0.13281-0.28516l9.7812-18.555c8.668 0.33594 23.91 5.6641 28.848 10.191 1.6445 1.5117 3.7266 2.2656 5.8125 2.2656 2.3281 0 4.6602-0.9375 6.3672-2.8086 3.2148-3.5117 2.9688-8.957-0.54297-12.176-6.9375-6.3477-20.641-11.605-31.918-13.723l5.7578-10.926c5.9414-11.262 13.703-18.07 23.715-20.797 21.074-5.7422 47.086 8.3242 57.277 14.625 3.4609 2.1484 5.4492 5.3516 6.2188 10.094zm-131.03 42.258c-1.2227 2.3125-1.2812 4.9375-0.38672 7.1953-7.3008 2.2344-14.18 5.8672-20.309 10.809-12.703 10.227-20.648 24.812-22.387 41.078-0.39062 3.6602-0.46484 7.3633-0.19531 11.027h-16.746c0.64062-8.6523 3.3711-32.34 6.4688-58.043 1.3984-0.98828 2.7188-1.9297 3.9727-2.8242 0.50391-0.35938 0.99609-0.70703 1.4766-1.0508 13.277-9.4883 17.301-12.344 31.379-13.688 4.7461-0.46094 8.2227-4.6641 7.7656-9.4062-0.46094-4.7422-4.6797-8.2227-9.4062-7.7617-15.133 1.4492-22.629 5.0156-32.375 11.637 3.7344-30.375 7.2773-58.164 7.8086-61.969 0.60547-3.6133-1.1641-7.3711-4.6133-9.1094-4.2344-2.1523-9.418-0.46094-11.57 3.7891-0.61719 1.2109-0.88672 1.7461-5.5508 39.367-4.8945-11.082-10.371-20.145-15.391-24.809-3.4961-3.2344-8.9414-3.0195-12.176 0.46094-3.2344 3.4961-3.0195 8.9414 0.46094 12.176 5.6914 5.2891 16.711 26.926 22.137 52.609-0.17578 1.4453-0.34766 2.8555-0.51562 4.2422-0.054687 0.3125-0.09375 0.62891-0.11328 0.94531-5.0508 41.68-6.6016 57.18-7.0039 63.434h-12.387c0.023437-16.824 0.40625-33.016 3.7227-46.871 6.3516-26.504 2.8398-45.344-9.6328-51.695-2.1914-1.1133-4.8125-1.918-7.8711-2.0117-0.25-1.6094-0.96094-3.1641-2.1406-4.4531-2.0234-2.2188-3.3633-6.293-4.0391-11.207 0.23047-3.0508 0.042968-6.0625-0.51953-8.9883 0.11328-9.0195 1.9492-18.734 5.4297-24.758l0.011718-0.015624c4.4219-7.6211 6.6445-11.449 20.453-3.957 2.3477 1.2812 5.168 1.3789 7.6133 0.29688 2.4453-1.082 4.2539-3.25 4.875-5.8594 0.95312-3.9531 6.4492-10.371 14.754-14.441 5.5312-2.7227 16.691-6.4336 29.312-0.76953 5.0234 2.2461 12.914 8.2383 12.75 14.719-0.29297 11.324-3.3789 25.816-8.7305 31.578-2.3125 2.4922-2.9531 6.1367-1.5898 9.2695 1.3438 3.1367 4.4297 5.1875 7.8438 5.2031 9.6992 0.066406 16.969 3.5273 21.023 9.9961 4.4258 7.0742 4.6094 17.316 0.44922 26.152zm75.629 48.422c2.0156 6.8594 2.8516 14.18 2.293 21.688h35.223c0.14062-1.2969 0.57812-2.5859 1.3398-3.7578 2.9375-4.5469 3.8906-9.8945 2.6758-15.098-1.2461-5.3828-4.6602-9.9766-9.6016-12.934-10.273-6.1367-23.781-3.1484-30.133 6.6328-0.70703 1.1055-1.3125 2.2695-1.7969 3.4688zm-221.38-116.89c8.8047 0.95703 16.16 7.4219 18.332 15.152 0.09375 10.766 2.3477 21.254 7.6875 28.301-1.0703 0.70312-2.1641 1.4844-3.2891 2.3516-3.2656-7.9922-7.957-15.492-15.918-19.363-6.2539-3.0547-13.719-3.4805-23.027-1.2148-0.78125-2.3125-1.7461-4.6289-2.8281-6.9023-1.0859-5.7656 1.1289-9.7969 3.2578-12.203 3.8242-4.332 10.027-6.7266 15.785-6.1211zm119.75 138.58h86.613c2.4492-23.922-14.848-45.449-38.641-48.02-11.504-1.2461-22.828 2.0859-31.855 9.3555-9.1055 7.3359-14.816 17.824-16.066 29.492-0.3125 2.8711-0.34375 5.7773-0.082031 8.6484 0.007813 0.070312 0.011719 0.14453 0.019531 0.21875 0.003906 0.10156 0.007813 0.20312 0.011719 0.30469zm-80.887 0c0.023438-17.895 0.46094-35.234 4.1992-50.875 5.1992-21.746 1.3125-31.312-0.70703-32.328-1.0156-0.51172-7.6484 0.40625-19.496 14.293-2.6094 3.0508-6.9766 3.9062-10.52 2.0508-3.5625-1.8555-5.3672-5.9062-4.3828-9.7969 0.19531-0.73828 0.44141-1.4922 0.72266-2.2656l0.050782-0.14844c0.10547-0.29688 0.22266-0.625 0.27734-0.83594-3.0547-9.6484-6.1562-14.969-9.75-16.723-3.6758-1.7891-9.8945-0.98438-19.004 2.4453-2.6406 1-5.6133 0.62109-7.9414-0.98438-2.332-1.6094-3.7109-4.25-3.7109-7.0898 0-7.2539-9.2539-22.648-17.922-32.445-4.3164-4.9102-18.035-6.4688-23.531-4.6133-14.016 4.7422-14.543 18.691-13.754 37.895 0.23047 5.5977 0.42578 10.438-0.17969 14.574-0.65625 4.4453-4.6133 7.6641-9.0938 7.3516-0.82031 0.14844-3.3633 1.6758-5.9414 5.3984-3.0508 4.3984-4.1523 8.9609-3.6445 11.195 2.5938 11.402 9.3086 17.41 20.5 18.348 4.7266 0.39062 8.2539 4.543 7.8789 9.2891-0.37891 4.6445-4.3672 8.1367-9.0273 7.9102-0.88672 0.14453-2.5117 1.0508-3.168 1.7383-2.6211 12.867 1.5 14.75 14.656 20.754l0.046875 0.023438 1.543 0.70703c1.9219 0.87891 3.3594 2.3711 4.1953 4.1328h74.082c-4.7539-4.4453-11.809-11.398-19.789-19.754-6.9453-0.14844-14.293-1.7656-21.449-3.3438l-0.03125-0.007812c-5.9883-1.3281-11.668-2.5781-15.621-2.5781-4.7617 0-8.6172-3.8555-8.6172-8.6133 0-4.7617 3.8555-8.6172 8.6172-8.6172 5.2344 0 11.051 1.1602 17.188 2.5-0.1875-0.50781-0.35547-1.0703-0.49609-1.707-17.445-20.09-34.137-42.25-38.555-57.133-1.3438-4.5625 1.25-9.3555 5.8125-10.719s9.3516 1.2461 10.715 5.8086c2.4727 8.332 11.18 21.344 22.258 35.344 0.050782-0.66016 0.10156-1.332 0.15625-2.0195 0.066407-0.89844 0.14063-1.8164 0.21875-2.7656 0.066407-0.76562 0.11328-1.3906 0.14453-1.8359l0.019531-0.26172c0.34375-4.7461 4.4805-8.3047 9.207-7.9766 4.7422 0.34375 8.3203 4.4609 7.9766 9.207-0.027344 0.41016-0.082031 1.0586-0.14844 1.875l-0.03125 0.38672c-1.0352 12.832-1.2656 19.461-1.2148 22.879l0.20312 0.23047c4.3203 4.9023 8.7109 9.7188 13.008 14.293 0.10938 0.10156 0.21484 0.20312 0.32031 0.30859 0.18359 0.19141 0.35937 0.38672 0.52734 0.58984 8.7617 9.2891 17.094 17.523 23.605 23.375 0.58984 0.52734 4.8555 4.0859 6.4648 5.4141l1.2461 1.0352c1.3281 1.1133 2.2344 2.543 2.7031 4.0859zm119.04 198.3h12.484c0.26172 0 0.50781 0.24609 0.50781 0.50781v9.457c0 0.26172-0.24609 0.50781-0.50781 0.50781h-158.22c-0.26562 0-0.51172-0.24609-0.51172-0.50781v-9.457c0-0.26172 0.24609-0.50781 0.51172-0.50781zm-133.29-17.215c-0.66016-0.42188-1.3867-0.76172-2.1719-1-74.953-22.664-112.96-75.758-112.96-157.78 0-2.7578 2.3789-5.0859 5.2031-5.0859h353.18c2.8203 0 5.1992 2.3281 5.1992 5.0859 0 82.711-40.227 137.59-116.36 158.78z" fill-rule="evenodd"/>
 </g>
</svg>
