<?xml version="1.0" encoding="UTF-8"?>
<svg width="752pt" height="752pt" version="1.1" viewBox="0 0 752 752" xmlns="http://www.w3.org/2000/svg">
 <path d="m245.84 592.45c2.3672 10.578 12.727 18.863 23.562 18.863h218.4c10.715 0 21.152-8.543 23.305-19.043l49.766-244.48c1.1445-5.543-0.11719-11.07-3.4922-15.215-3.3555-4.1055-8.5234-6.4336-14.188-6.4336h-26.48c6.8672-34.137 14.367-70.406 23.641-114.59 0.43359-2.0898 0-4.3008-1.2227-6.0781-1.2227-1.7773-3.0977-2.9805-5.2305-3.3359-16.773-2.8008-25.496-4.1641-41.832-6.6289-2.0898-0.29687-4.3398 0.25781-6.0391 1.5781-1.7148 1.3203-2.8008 3.3164-3 5.4648-4.5195 46.805-8.207 85.227-11.84 123.59h-4.0469c-1.3203 0-2.7617 0.375-4.1641 0.59375 4.0273-47.379 8.1094-94.836 13.555-158.02 0.19922-2.1133-0.49219-4.2227-1.8945-5.8398-1.4023-1.6172-3.3945-2.5859-5.5039-2.7227-17.777-1.0469-26.68-1.4609-44.457-2.2109-4.5586-0.35547-7.9141 3.0586-8.207 7.3398-3.0586 44.676-3.9062 80.766-4.7344 115.69-0.69141 28.949-1.3633 56.336-3.2773 85.305-2.5469 1.2031-5.1094 2.3867-7.9922 3.3945 1.1445-24.449 1.4414-47.535 1.5977-71.609 0.19922-28.906 0.41406-58.805 2.4062-93.234 0.13672-2.2109-0.67188-4.3594-2.2109-5.9414-1.5195-1.5781-3.6719-2.1719-5.8594-2.4062-18.746 0.45313-28.848 0.80859-47.32 1.5977-2.1719 0.078125-4.2227 1.0664-5.6445 2.7227s-2.0898 3.8086-1.875 5.9805c3.2344 31.297 5.4258 62.789 7.5781 93.234 1.6758 23.895 3.4336 47.871 5.6055 72.023-2.7617-0.61328-5.4844-1.2422-7.9922-2.0703-3.1758-31.039-5.8398-61.82-8.4844-92.566-3.6289-42.367-7.418-86.152-12.527-129.72-0.53125-4.2812-4.4375-7.4375-8.6641-6.9258-17.875 1.8359-26.816 2.8203-44.633 4.9531-2.0938 0.23828-4.0078 1.3203-5.3086 3-1.2812 1.6758-1.875 3.7891-1.5781 5.8789 7.7734 57.68 15.094 115.32 22.16 173-2.9023-0.84766-5.8008-1.4023-8.4844-1.4219-6.0195-44.773-12.02-89.508-18.41-134.24-0.29688-2.1133-1.4414-4.0273-3.1602-5.2891-1.7539-1.2422-3.9258-1.7383-6.0156-1.3828-14.82 2.6055-23.52 4.2227-39.465 7.3008-2.0938 0.39453-3.9102 1.6211-5.0938 3.3945-1.1641 1.7773-1.5781 3.9453-1.125 6.0195 8.918 41.379 17.445 82.777 25.852 124.18h-23.246c-5.7031 0-10.852 2.3672-14.129 6.4727-3.3164 4.1055-4.5195 9.668-3.2773 15.254zm252.12-380.07c8.9961 1.3633 16.043 2.4648 25.238 4.0039-8.7617 41.934-15.965 76.801-22.613 109.77h-13.5c3.3555-35.578 6.7891-71.293 10.875-113.78zm-70.406 68.965c0.76953-32.715 1.5586-66.48 4.2031-107.3 10.418 0.45313 18.035 0.82813 28.395 1.4023-5.3867 62.492-9.4531 109.63-13.516 157.54-0.019531 0.15625 0.058594 0.29688 0.058594 0.45312-3 2.0898-5.8008 4.4219-7.875 7.1445-0.92578 1.5195-5.5664 8.3281-13.992 15.391 1.4062-25.098 2.1328-49.352 2.7266-74.629zm-62.652 17.523c-1.9531-27.883-3.9648-56.633-6.7891-85.402 10.871-0.43359 19.199-0.73047 30.152-1.0078-1.5977 31.258-1.7969 58.785-1.9727 85.48-0.15625 25.336-0.41406 49.449-1.7383 75.219-3.6719 0.47266-7.3594 0.96875-11.445 0.96875-0.84766 0-1.5391-0.17578-2.3672-0.19922-2.2852-25.195-4.1016-50.156-5.8398-75.059zm-82.637-138.45c10.457-1.2227 18.152-2.0703 28.691-3.1758 4.6172 40.789 8.168 81.773 11.621 121.47 2.3867 27.684 4.875 55.469 7.6562 83.371-13.812-8.6641-21.547-19.359-23.836-22.969-0.55078-0.71094-1.4219-1.3203-2.0898-2.0117 0.21875-0.88672 0.33594-1.7969 0.21875-2.7617-7.1094-57.996-14.488-115.93-22.262-173.93zm-59.16 46.098c8.543-1.6367 15.215-2.8828 23.246-4.3008 5.8594 41.301 11.406 82.602 16.949 123.92l-15.371-0.003906c-8.0703-39.898-16.281-79.758-24.824-119.62zm-14.543 135.4h70.504c4.8945 0 12.512 3.8672 14.387 6.2344 4.4219 6.9844 28.906 41.754 79.68 41.754 52.449 0 76.562-36.898 78.652-40.414 2.9609-3.8281 10.578-7.5977 15.371-7.5977h76.051c0.88672 0 1.6562 0.25781 1.9727 0.63281 0.27734 0.33594 0.43359 1.0859 0.25781 2.0703l-49.785 244.51c-0.67188 3.2344-4.5391 6.4141-7.832 6.4141h-218.42c-3.375 0-7.418-3.2344-8.1484-6.5312l-54.66-244.59z"/>
</svg>
