<?xml version="1.0" encoding="UTF-8"?>
<svg width="752pt" height="752pt" version="1.1" viewBox="0 0 752 752" xmlns="http://www.w3.org/2000/svg">
 <g>
  <path d="m379.83 271.73-80.672 57.41c13.348-2.2188 27.383-3.5078 42.094-3.5078 8.625 0 17.215 0.48047 25.742 1.293 0.36328-22.184 1.1328-31.391 12.836-55.195z"/>
  <path d="m214.59 425.68c0 4.5781-3.7109 8.2852-8.2891 8.2852-4.5742 0-8.2852-3.707-8.2852-8.2852 0-4.5781 3.7109-8.2891 8.2852-8.2891 4.5781 0 8.2891 3.7109 8.2891 8.2891"/>
  <path d="m525.89 401.27c-42.035-23.883-112.82-56.691-184.64-56.691-112.89 0-185.47 81.102-185.47 81.102s20.117 22.293 55.387 43.512h102.75c-4.3516-13.305 11.055-24.332 23.773-29.73 3.6172-1.543 7.7695 0.14844 9.3125 3.7461 1.5352 3.6094-0.13672 7.7773-3.7383 9.3242-8.7422 3.7422-16.094 9.8281-15.973 12.188 0.023437 0.5 1.2148 2.2344 5.4141 4.4766h69.496c-0.39844-1.2148-0.75781-2.4492-0.82031-3.8164-0.66406-14.422 20.367-24.125 24.594-25.918 3.625-1.543 7.7695 0.14844 9.3125 3.7461 1.5352 3.6094-0.13672 7.7773-3.7383 9.3242-8.7422 3.7422-16.094 9.8281-15.973 12.188 0.023438 0.5 1.2148 2.2344 5.4141 4.4766h68.047c13.812-6.4883 26.246-13.078 36.844-19.098l22.789 19.098h32.676c-10.852-42.281-5.9297-84.566 14.855-126.85zm-319.59 43.453c-10.516 0-19.043-8.5273-19.043-19.043 0-10.516 8.5273-19.043 19.043-19.043s19.043 8.5273 19.043 19.043c0 10.516-8.5234 19.043-19.043 19.043zm136.98-61.602c-8.7422 3.7422-16.094 9.8281-15.973 12.188 0.035156 0.77344 2.7461 4.4844 15.344 8.5039 3.7383 1.1953 5.8008 5.1914 4.6055 8.9258-1.2305 3.8281-5.3164 5.7773-8.9258 4.6055-6.0859-1.9375-24.586-7.8438-25.223-21.375-0.66406-14.422 20.367-24.125 24.594-25.918 3.6172-1.5586 7.7695 0.15234 9.3125 3.7461 1.5391 3.6094-0.13672 7.7812-3.7344 9.3242zm42.668 52.789c3.7383 1.1953 5.8008 5.1914 4.6055 8.9258-1.2148 3.7734-5.2422 5.7891-8.9336 4.6055-6.0781-1.9375-24.574-7.8438-25.215-21.375-0.66406-14.422 20.367-24.125 24.594-25.918 3.625-1.543 7.7695 0.14844 9.3125 3.7461 1.5352 3.6094-0.13672 7.7773-3.7383 9.3242-8.7422 3.7422-16.094 9.8281-15.973 12.188 0.039063 0.76953 2.75 4.4844 15.348 8.5039zm50.828-27.406c3.7383 1.1953 5.8008 5.1914 4.6055 8.9258-1.2305 3.8281-5.3164 5.7773-8.9258 4.6055-6.0859-1.9375-24.586-7.8438-25.223-21.375-0.66406-14.422 20.367-24.125 24.594-25.918 3.6172-1.543 7.7773 0.15234 9.3125 3.7461 1.5352 3.6094-0.13672 7.7773-3.7383 9.3242-8.7422 3.7422-16.094 9.8281-15.973 12.188 0.039063 0.76953 2.75 4.4844 15.348 8.5039zm55.82 23.922c3.7383 1.1953 5.8008 5.1914 4.6055 8.9258-1.2148 3.7734-5.2422 5.7891-8.9336 4.6055-6.0781-1.9375-24.574-7.8438-25.215-21.375-0.66406-14.422 20.367-24.125 24.594-25.918 3.6172-1.5547 7.7695 0.14844 9.3125 3.7461 1.5352 3.6094-0.13672 7.7773-3.7383 9.3242-8.7422 3.7422-16.094 9.8281-15.973 12.188 0.039062 0.77344 2.75 4.4844 15.348 8.5039z"/>
  <path d="m208.38 550.88h335.25l59.695-62.75h-454.64z"/>
  <path d="m208.38 569.82h335.25v12.43h-335.25z"/>
  <path d="m504.61 277.82c-0.89844 4.3438-0.49219 9.2734 1.4492 13.207 3.7695 8.0195 10.996 12.383 18.238 13.727-4.6719-5.6562-8.3516-11.465-9.1992-16.762-0.28516-2.6445-0.35156-5.0234 0.71484-7.4023 0.19141-1.2031 1.043-2.3984 1.4727-3.6094 0.85547-1.293 1.4414-2.0938 2.4375-3.8086 2.0742-3.5547 4.2188-7.4023 4.6172-11.965 0.44922-4.4219-0.10938-9.0977-2.1484-12.879-3.9297-7.5742-10.652-12.203-17.809-14.02 4.4219 5.832 7.918 11.727 9.0742 17.242 0.97656 5.5039-0.48047 10.152-3.7422 14.914-1.918 2.9844-4.2578 7.0078-5.1055 11.355z"/>
  <path d="m410.64 277.82c-0.89844 4.3438-0.49219 9.2734 1.4492 13.207 3.7695 8.0195 10.996 12.383 18.238 13.727-4.6719-5.6562-8.3516-11.465-9.1992-16.762-0.28516-2.6445-0.35156-5.0234 0.71484-7.4023 0.19141-1.2031 1.0469-2.3984 1.4727-3.6094 0.85547-1.293 1.4414-2.0938 2.4375-3.8086 2.0742-3.5547 4.2188-7.4023 4.6172-11.965 0.44922-4.4219-0.11328-9.0977-2.1484-12.879-3.9297-7.5742-10.652-12.203-17.809-14.02 4.4219 5.832 7.918 11.727 9.0742 17.242 0.97656 5.5039-0.48047 10.152-3.7422 14.914-1.918 2.9844-4.2578 7.0078-5.1055 11.355z"/>
  <path d="m457.69 239.46c-0.74219 5.8516-0.48047 11.984 0.95703 17.633 2.7578 11.418 9.9648 20.488 18.539 24.812-5.2617-8.7695-8.6641-17.945-9.2539-26.898-0.51563-9.043 1.3477-17.219 5.2188-25.977 4.2109-10.383 5.7891-23.137 2.3633-34.199-3.1172-11.02-9.7656-20.07-18.047-25.078 4.8945 9.0156 8.1602 18.316 9.082 27.43 0.97266 9.1055-0.73828 17.844-4.1758 26.02-1.8828 4.668-3.9102 10.5-4.6836 16.258z"/>
 </g>
</svg>
